<?xml version="1.0" encoding="utf-8"?>
<!-- Generator: Adobe Illustrator 20.1.0, SVG Export Plug-In . SVG Version: 6.00 Build 0)  -->
<svg version="1.1" xmlns="http://www.w3.org/2000/svg" xmlns:xlink="http://www.w3.org/1999/xlink" x="0px" y="0px"
	 viewBox="0 0 683.9 384.8" style="enable-background:new 0 0 683.9 384.8;" xml:space="preserve">
<style type="text/css">
	.st0{display:none;}
	.st1{display:none;opacity:0.66;}
	.st2{display:inline;}
	.st3{clip-path:url(#SVGID_2_);}
	.st4{clip-path:url(#SVGID_4_);fill:url(#SVGID_5_);}
	.st5{clip-path:url(#SVGID_4_);}
	.st6{opacity:0.29;fill:none;stroke:#FFFFFF;stroke-width:0.8881;stroke-miterlimit:10;}
	.st7{opacity:0.11;clip-path:url(#SVGID_4_);fill:#FFFFFF;}
	.st8{opacity:0.22;clip-path:url(#SVGID_4_);fill:#FFFFFF;}
	.st9{opacity:0.17;clip-path:url(#SVGID_4_);fill:#FFFFFF;}
	.st10{opacity:0.15;clip-path:url(#SVGID_4_);fill:#26C8E0;}
	.st11{display:none;clip-path:url(#SVGID_4_);}
	.st12{display:inline;opacity:0.17;fill:#FFFFFF;}
	.st13{display:inline;opacity:0.29;fill:#FFFFFF;}
	.st14{fill:#FFFFFF;}
	.st15{fill:none;stroke:#350441;stroke-width:2.7494;stroke-miterlimit:10;}
	.st16{fill:none;stroke:#350441;stroke-width:2.935;stroke-miterlimit:10;}
	.st17{fill:#340740;}
	.st18{fill:#A0477C;}
	.st19{display:inline;fill:none;stroke:#350441;stroke-width:2.7494;stroke-miterlimit:10;}
	.st20{display:inline;fill:none;stroke:#350441;stroke-width:2.935;stroke-miterlimit:10;}
</style>
<g id="Layer_3" class="st0">
</g>
<g id="Layer_2" class="st1">
	<g class="st2">
		<defs>
			<rect id="SVGID_1_" width="683.9" height="384.8"/>
		</defs>
		<clipPath id="SVGID_2_">
			<use xlink:href="#SVGID_1_"  style="overflow:visible;"/>
		</clipPath>
		<g class="st3">
			<defs>
				<rect id="SVGID_3_" x="-4.3" y="-20.2" width="696.6" height="424.6"/>
			</defs>
			<clipPath id="SVGID_4_">
				<use xlink:href="#SVGID_3_"  style="overflow:visible;"/>
			</clipPath>
			<linearGradient id="SVGID_5_" gradientUnits="userSpaceOnUse" x1="-4.2754" y1="192.0682" x2="692.2863" y2="192.0682">
				<stop  offset="0" style="stop-color:#4DC3EB"/>
				<stop  offset="0.6721" style="stop-color:#5ED4EE"/>
				<stop  offset="0.9449" style="stop-color:#67DDF0"/>
			</linearGradient>
			<rect x="-4.3" y="-20.2" class="st4" width="696.6" height="424.6"/>
			<g class="st5">
				<path class="st6" d="M680.1,224.1c-15,26.6-42.8,44.1-74,52.4c-37,9.8-72.5,4.6-109.6-0.6c-34.2-4.8-72.2-6.1-101.1,14.2
					c-44.8,31.5-49,92.6-90,128c-20.3,17.5-47.9,27.7-75.8,28c-30.8,0.3-69.8-12-85.6-38c-15.3-25.2,0.2-50.4-5.2-76.2
					c-10.6-50.5-87-47.5-123.9-72.6c-17.6-12-29.5-29.9-37.6-48.5c-9-20.7-13.9-43.8-7.8-65.4c10.1-35.8,48.1-49.1,85.1-50.4
					c27.5-1,54.8,5.5,80.1,15.5c22.3,8.8,43.3,20.4,66.2,28.1c56.4,19,111.9-5.2,160.6-31.2c62.5-33.4,127-65.6,201.6-54.1
					c57.1,8.8,116.3,40.9,127.5,96.7c4.7,23.6,2.5,48.6-8.3,70.5C681.5,221.6,680.8,222.9,680.1,224.1z"/>
				<path class="st6" d="M680.1,233.7c-15,26.6-42.8,44.1-74,52.4c-37,9.8-72.5,4.6-109.6-0.6c-34.2-4.8-72.2-6.1-101.1,14.2
					c-44.8,31.5-49,92.6-90,128c-20.3,17.5-47.9,27.7-75.8,28c-30.8,0.3-69.8-12-85.6-38c-15.3-25.2,0.2-50.4-5.2-76.2
					c-10.6-50.5-87-47.5-123.9-72.6c-17.6-12-29.5-29.9-37.6-48.5c-9-20.7-13.9-43.8-7.8-65.4c10.1-35.8,48.1-49.1,85.1-50.4
					c27.5-1,54.8,5.5,80.1,15.5c22.3,8.8,43.3,20.4,66.2,28.1c56.4,19,111.9-5.2,160.6-31.2c62.5-33.4,127-65.6,201.6-54.1
					c57.1,8.8,116.3,40.9,127.5,96.7c4.7,23.6,2.5,48.6-8.3,70.5C681.5,231.1,680.8,232.4,680.1,233.7z"/>
				<path class="st6" d="M680.1,243.2c-15,26.6-42.8,44.1-74,52.4c-37,9.8-72.5,4.6-109.6-0.6c-34.2-4.8-72.2-6.1-101.1,14.2
					c-44.8,31.5-49,92.6-90,128c-20.3,17.5-47.9,27.7-75.8,28c-30.8,0.3-69.8-12-85.6-38c-15.3-25.2,0.2-50.4-5.2-76.2
					c-10.6-50.5-87-47.5-123.9-72.6c-17.6-12-29.5-29.9-37.6-48.5c-9-20.7-13.9-43.8-7.8-65.4c10.1-35.8,48.1-49.1,85.1-50.4
					c27.5-1,54.8,5.5,80.1,15.5c22.3,8.8,43.3,20.4,66.2,28.1c56.4,19,111.9-5.2,160.6-31.2c62.5-33.4,127-65.6,201.6-54.1
					c57.1,8.8,116.3,40.9,127.5,96.7c4.7,23.6,2.5,48.6-8.3,70.5C681.5,240.7,680.8,242,680.1,243.2z"/>
				<path class="st6" d="M680.1,252.8c-15,26.6-42.8,44.1-74,52.4c-37,9.8-72.5,4.6-109.6-0.6c-34.2-4.8-72.2-6.1-101.1,14.2
					c-44.8,31.5-49,92.6-90,128c-20.3,17.5-47.9,27.7-75.8,28c-30.8,0.3-69.8-12-85.6-38c-15.3-25.2,0.2-50.4-5.2-76.2
					c-10.6-50.5-87-47.5-123.9-72.6c-17.6-12-29.5-29.9-37.6-48.5c-9-20.7-13.9-43.8-7.8-65.4c10.1-35.8,48.1-49.1,85.1-50.4
					c27.5-1,54.8,5.5,80.1,15.5c22.3,8.8,43.3,20.4,66.2,28.1c56.4,19,111.9-5.2,160.6-31.2c62.5-33.4,127-65.6,201.6-54.1
					c57.1,8.8,116.3,40.9,127.5,96.7c4.7,23.6,2.5,48.6-8.3,70.5C681.5,250.2,680.8,251.5,680.1,252.8z"/>
			</g>
			<path class="st7" d="M404.2,64.6c-13.1,23.3-37.5,38.6-64.7,45.8c-32.3,8.6-63.4,4-95.8-0.5c-29.9-4.2-63.1-5.4-88.4,12.4
				c-39.1,27.6-42.9,81-78.7,111.9c-17.7,15.3-41.9,24.2-66.3,24.4c-26.9,0.3-61-10.5-74.8-33.2c-13.4-22.1,0.2-44.1-4.6-66.7
				c-9.3-44.2-76-41.6-108.3-63.5c-15.4-10.5-25.8-26.1-32.9-42.4c-7.9-18.1-12.2-38.3-6.8-57.2c8.8-31.3,42.1-43,74.4-44.1
				c24-0.8,47.9,4.8,70,13.6c19.5,7.7,37.9,17.9,57.8,24.6C34.4,6.3,83-14.9,125.5-37.6c54.6-29.2,111-57.3,176.3-47.3
				c49.9,7.7,101.7,35.7,111.5,84.5c4.1,20.6,2.2,42.5-7.3,61.6C405.4,62.4,404.8,63.5,404.2,64.6z"/>
			<path class="st7" d="M753,425.4c-13.1,23.3-37.5,38.6-64.7,45.8c-32.3,8.6-63.4,4-95.8-0.5c-29.9-4.2-63.1-5.4-88.4,12.4
				c-39.1,27.6-42.9,81-78.7,111.9c-17.7,15.3-41.9,24.2-66.3,24.4c-26.9,0.3-61-10.5-74.8-33.2c-13.4-22.1,0.2-44.1-4.6-66.7
				c-4.7-22.3-26.9-34.3-48.6-41.3c-17.2-5.5-35.4-9.1-51.2-17.5c-26.9-14.4-43.5-41.7-48.7-69.9c-3.1-16.9-2.2-35.2,7.5-49.8
				c12-18,35.6-27.3,58.6-28.7c26-1.6,54.8,4.1,78.6,13.5c19.5,7.7,37.9,17.9,57.8,24.6c49.3,16.6,97.9-4.6,140.4-27.3
				c54.6-29.2,111-57.3,176.3-47.3c49.9,7.7,101.7,35.7,111.5,84.5c4.1,20.6,2.2,42.5-7.3,61.6C754.2,423.2,753.6,424.3,753,425.4z"
				/>
			<path class="st8" d="M787.9,417.1c-13.1,23.3-37.5,38.6-64.7,45.8c-32.3,8.6-63.4,4-95.8-0.5c-29.9-4.2-63.1-5.4-88.4,12.4
				c-39.1,27.6-42.9,81-78.7,111.9c-17.7,15.3-41.9,24.2-66.3,24.4c-26.9,0.3-61-10.5-74.8-33.2c-13.4-22.1,0.2-44.1-4.6-66.7
				c-9.3-44.2-76-41.6-108.3-63.5c-15.4-10.5-25.8-26.1-32.9-42.4c-7.9-18.1-12.2-38.3-6.8-57.2c8.8-31.3,42.1-43,74.4-44.1
				c24-0.8,47.9,4.8,70,13.6c19.5,7.7,37.9,17.9,57.8,24.6c49.3,16.6,97.9-4.6,140.4-27.3c54.6-29.2,111-57.3,176.3-47.3
				c49.9,7.7,101.7,35.7,111.5,84.5c4.1,20.6,2.2,42.5-7.3,61.6C789.1,414.8,788.5,415.9,787.9,417.1z"/>
			<path class="st9" d="M534.5-29.8C521.5-6.5,497.1,8.8,469.8,16c-32.3,8.6-63.4,4-95.8-0.5c-29.9-4.2-63.1-5.4-88.4,12.4
				c-39.1,27.6-42.9,81-78.7,111.9c-17.7,15.3-41.9,24.2-66.3,24.4c-26.9,0.3-61-10.5-74.8-33.2c-13.4-22.1,0.2-44.1-4.6-66.7
				C52,20.1-14.8,22.8-47,0.8C-62.4-9.7-72.8-25.3-79.9-41.6c-7.9-18.1-12.2-38.3-6.8-57.2c8.8-31.3,42.1-43,74.4-44.1
				c24-0.8,47.9,4.8,70,13.6c19.5,7.7,37.9,17.9,57.8,24.6c49.3,16.6,97.9-4.6,140.4-27.3c54.6-29.2,111-57.3,176.3-47.3
				c49.9,7.7,101.7,35.7,111.5,84.5c4.1,20.6,2.2,42.5-7.3,61.6C535.8-32.1,535.2-30.9,534.5-29.8z"/>
			<path class="st10" d="M389.6,190.4c2.5-20.1,15.5-37.1,32.9-48.9c20.7-14,44.4-18.2,69-22.7c22.7-4.2,46.9-11.3,59.8-30.3
				c19.9-29.5,6.8-69.3,23.4-100.4c8.2-15.4,22.9-27.7,40.3-33.8c19.3-6.7,46.9-7.1,63.6,6.1c16.2,12.8,12.9,32.1,23.1,47.4
				c19.8,29.9,66.9,11.9,96.6,20.1c14.2,3.9,26.3,12.8,36.2,22.9c11,11.3,20.1,24.9,21.9,39.9c2.9,24.9-17.5,41.4-40.4,50
				c-17,6.4-35.9,8.1-54.3,7c-16.3-0.9-32.5-3.9-48.8-3.9c-40.3-0.2-68.9,26.9-92.7,53.8c-30.6,34.4-62.7,68.5-112.6,77
				c-38.1,6.5-83.6-1.5-105.1-34.6c-9.1-14-14.2-30.4-13-46.6C389.4,192.3,389.5,191.4,389.6,190.4z"/>
			<ellipse class="st9" cx="407.1" cy="98.6" rx="18.3" ry="16.8"/>
			<ellipse class="st9" cx="446.9" cy="52.9" rx="9.2" ry="8.4"/>
			<ellipse class="st9" cx="225" cy="270.6" rx="9.2" ry="8.4"/>
			<ellipse class="st9" cx="193.9" cy="306.6" rx="18.3" ry="16.8"/>
			<path class="st9" d="M69.9,197.5c-1.6,23.3-23.5,41.1-49,39.6c-25.5-1.4-44.9-21.5-43.3-44.8s23.5-41.1,49-39.6
				C52.1,154.1,71.5,174.1,69.9,197.5z"/>
			<path class="st9" d="M738.1,63.7c-1.6,23.3-23.5,41.1-49,39.6s-44.9-21.5-43.3-44.8c1.6-23.3,23.5-41.1,49-39.6
				C720.2,20.3,739.6,40.3,738.1,63.7z"/>
			<g class="st11">
				<ellipse class="st12" cx="344" cy="194.6" rx="114.6" ry="104.8"/>
				<ellipse class="st13" cx="344" cy="193.9" rx="100.8" ry="92.2"/>
			</g>
			<g class="st11">
				<g class="st2">
					<path class="st14" d="M137.5,549l-0.3-5.5H137c-1.3,3.4-3.9,6.5-7.3,6.5c-4.8,0-7.3-6.2-7.3-12.5c0-10.5,5.1-16.3,14.3-16.2
						v-0.9c0-3.6-0.5-10.1-5.4-10.1c-2.2,0-4.5,1.3-6.2,3.2l-1-5.2c2-2.3,4.8-3.9,7.8-3.9c7.3,0,9.1,9.1,9.1,17.8v16.3
						c0,3.8,0.1,7.5,0.4,10.4H137.5z M136.9,526.8c-4.7-0.2-10.1,1.4-10.1,9.8c0,5.1,1.9,7.6,4.1,7.6c3.1,0,5.1-3.6,5.8-7.3
						c0.1-0.8,0.2-1.7,0.2-2.5V526.8z"/>
					<path class="st14" d="M147.9,549c0.1-3,0.2-7.4,0.2-11.2v-52.6h4.3v27.4h0.1c1.5-4.9,4.3-8,8.1-8c5.9,0,10.1,9,10.1,22.2
						c0,15.6-5.4,23.3-10.7,23.3c-3.5,0-6.2-2.4-8-8.2h-0.1l-0.2,7.2H147.9z M152.4,531.6c0,1,0.1,2,0.2,2.9
						c0.8,5.5,3.4,9.3,6.5,9.3c4.5,0,7.2-6.8,7.2-16.7c0-8.7-2.5-16.2-7.1-16.2c-3,0-5.7,3.7-6.6,9.7c-0.1,0.9-0.2,2-0.2,3.2V531.6z
						"/>
					<path class="st14" d="M175.5,540.9c1.3,1.5,3.5,3.1,5.7,3.1c3.2,0,4.6-2.9,4.6-6.5c0-3.8-1.2-5.8-4.4-8
						c-4.3-2.8-6.3-7.1-6.3-12.3c0-7,3.1-12.8,8.2-12.8c2.4,0,4.5,1.3,5.9,2.7l-1.1,5.8c-0.9-1.1-2.7-2.5-4.9-2.5
						c-2.6,0-4,2.7-4,5.9c0,3.6,1.4,5.2,4.5,7.4c4.1,2.9,6.3,6.7,6.3,13.1c0,7.6-3.3,13-8.9,13c-2.6,0-5-1.2-6.7-3L175.5,540.9z"/>
					<path class="st14" d="M200.9,493v12.5h6.2v6h-6.2V535c0,5.4,0.8,8.5,3.3,8.5c1.1,0,2-0.3,2.5-0.5l0.2,5.9
						c-0.8,0.6-2.2,1.1-3.8,1.1c-2,0-3.6-1.2-4.7-3.3c-1.2-2.3-1.7-6.2-1.7-11.3v-23.8H193v-6h3.7V495L200.9,493z"/>
					<path class="st14" d="M212,519.1c0-5.1,0-9.5-0.2-13.6h3.8l0.1,8.5h0.2c1.1-5.8,3.7-9.5,6.6-9.5c0.5,0,0.8,0.1,1.2,0.3v7.5
						c-0.4-0.2-0.9-0.3-1.5-0.3c-3.1,0-5.2,4.2-5.8,10.2c-0.1,1.1-0.2,2.3-0.2,3.7V549H212V519.1z"/>
					<path class="st14" d="M241.1,549l-0.3-5.5h-0.1c-1.3,3.4-3.9,6.5-7.3,6.5c-4.8,0-7.3-6.2-7.3-12.5c0-10.5,5.1-16.3,14.3-16.2
						v-0.9c0-3.6-0.5-10.1-5.4-10.1c-2.2,0-4.5,1.3-6.2,3.2l-1-5.2c2-2.3,4.8-3.9,7.8-3.9c7.3,0,9.1,9.1,9.1,17.8v16.3
						c0,3.8,0.1,7.5,0.4,10.4H241.1z M240.4,526.8c-4.7-0.2-10.1,1.4-10.1,9.8c0,5.1,1.9,7.6,4.1,7.6c3.1,0,5.1-3.6,5.8-7.3
						c0.1-0.8,0.2-1.7,0.2-2.5V526.8z"/>
					<path class="st14" d="M268.6,547.4c-1.1,1.1-3.6,2.5-6.9,2.5c-7.2,0-11.9-8.9-11.9-22.2c0-13.4,5-23.1,12.8-23.1
						c2.6,0,4.8,1.2,6,2.2l-1,6.1c-1-1.1-2.7-2.1-5-2.1c-5.5,0-8.4,7.4-8.4,16.5c0,10.1,3.5,16.3,8.3,16.3c2.5,0,4.1-1.2,5.3-2.2
						L268.6,547.4z"/>
					<path class="st14" d="M279.6,493v12.5h6.2v6h-6.2V535c0,5.4,0.8,8.5,3.3,8.5c1.1,0,2-0.3,2.5-0.5l0.2,5.9
						c-0.8,0.6-2.2,1.1-3.8,1.1c-2,0-3.6-1.2-4.7-3.3c-1.2-2.3-1.7-6.2-1.7-11.3v-23.8h-3.7v-6h3.7V495L279.6,493z"/>
				</g>
				<g class="st2">
					<path class="st14" d="M134.2,580v0.9c0,2.7-0.4,4.4-1.4,5.2c1.2,0.8,1.7,2.8,1.7,5.5v2.1c0,4-1.2,6.1-3.4,6.1h-3.5V574h3.4
						C133.3,574,134.2,576,134.2,580z M129.8,577.7v6.8h0.9c0.8,0,1.3-0.7,1.3-2.7v-1.4c0-1.8-0.3-2.7-1.1-2.7H129.8z M129.8,588.2
						v7.9h1.3c0.7,0,1.2-0.6,1.2-2.5v-2.3c0-2.4-0.4-3.1-1.4-3.1H129.8z"/>
					<path class="st14" d="M151.1,599.9h-2.2l-0.4-4.7h-2.7l-0.4,4.7h-2l2.3-25.8h3.3L151.1,599.9z M146,591.7h2.1l-1.1-13.1
						L146,591.7z"/>
					<path class="st14" d="M166.7,590.2v3.4c0,4.1-1.1,6.5-3.3,6.5s-3.3-2.4-3.3-6.5v-13.4c0-4.1,1.1-6.5,3.3-6.5s3.3,2.4,3.3,6.5
						v2.5h-2.1V580c0-1.8-0.4-2.5-1.2-2.5c-0.7,0-1.2,0.7-1.2,2.5v14c0,1.8,0.4,2.5,1.2,2.5c0.7,0,1.2-0.7,1.2-2.5v-3.7H166.7z"/>
					<path class="st14" d="M179,589.6l-0.7,2.4v7.9h-2.2V574h2.2v11.3l2.9-11.3h2.2l-3.1,11.5l3.1,14.3h-2.3L179,589.6z"/>
					<path class="st14" d="M195.8,585.5h3.1v8.2c0,4.1-1.1,6.5-3.3,6.5s-3.3-2.4-3.3-6.5v-13.4c0-4.1,1.1-6.5,3.3-6.5
						s3.3,2.4,3.3,6.5v2.5h-2.1V580c0-1.8-0.4-2.5-1.2-2.5c-0.7,0-1.2,0.7-1.2,2.5v14c0,1.8,0.4,2.5,1.2,2.5c0.7,0,1.2-0.7,1.2-2.5
						v-4.8h-1V585.5z"/>
					<path class="st14" d="M213,599.9c-0.1-0.7-0.2-1.1-0.2-3.2v-4.1c0-2.4-0.4-3.3-1.5-3.3h-0.8v10.5h-2.2V574h3.4
						c2.3,0,3.3,2,3.3,5.9v2c0,2.7-0.5,4.4-1.5,5.2c1.1,0.8,1.5,2.8,1.5,5.5v4c0,1.3,0,2.2,0.2,3.1H213z M210.6,577.7v7.9h0.9
						c0.8,0,1.3-0.7,1.3-2.7v-2.5c0-1.8-0.3-2.7-1.1-2.7H210.6z"/>
					<path class="st14" d="M224.4,580.2c0-4.1,1.2-6.5,3.4-6.5c2.2,0,3.4,2.4,3.4,6.5v13.4c0,4.1-1.2,6.5-3.4,6.5
						c-2.2,0-3.4-2.4-3.4-6.5V580.2z M226.7,593.9c0,1.8,0.4,2.5,1.2,2.5c0.7,0,1.2-0.7,1.2-2.5v-14c0-1.8-0.4-2.5-1.2-2.5
						c-0.7,0-1.2,0.7-1.2,2.5V593.9z"/>
					<path class="st14" d="M242.8,574V594c0,1.8,0.4,2.5,1.2,2.5s1.2-0.7,1.2-2.5V574h2.1v19.7c0,4.1-1.1,6.5-3.3,6.5
						s-3.3-2.4-3.3-6.5V574H242.8z"/>
					<path class="st14" d="M258.8,581.2v18.7h-2V574h2.8l2.3,15.5V574h2v25.8h-2.3L258.8,581.2z"/>
					<path class="st14" d="M273.6,574h3.5c2.2,0,3.3,2.3,3.3,6.4v13.1c0,4.1-1.1,6.4-3.3,6.4h-3.5V574z M275.8,577.7v18.5h1.3
						c0.7,0,1.1-0.7,1.1-2.5v-13.4c0-1.8-0.4-2.5-1.1-2.5H275.8z"/>
				</g>
			</g>
		</g>
	</g>
</g>
<g id="Layer_4" class="st0">
</g>
<g id="Layer_5">
	
		<image style="display:none;overflow:visible;" width="906" height="748" xlink:href="Untitled.png"  transform="matrix(0.2311 0 0 0.2311 88.7449 168.6846)">
	</image>
	<rect x="44.4" y="116" class="st15" width="72.4" height="27"/>
	<line class="st16" x1="115.5" y1="116" x2="218.1" y2="116"/>
	<g class="st0">
		<path class="st2" d="M59.5,124.9L59.5,124.9l-2.3,1.2l-0.3-1.3l2.8-1.5h1.5v13h-1.7V124.9z"/>
		<path class="st2" d="M74.7,129.6c0,4.4-1.6,6.9-4.5,6.9c-2.5,0-4.3-2.4-4.3-6.7c0-4.4,1.9-6.8,4.5-6.8
			C73.1,123,74.7,125.5,74.7,129.6z M67.6,129.8c0,3.4,1,5.3,2.6,5.3c1.8,0,2.7-2.1,2.7-5.4c0-3.2-0.8-5.3-2.6-5.3
			C68.7,124.4,67.6,126.3,67.6,129.8z"/>
		<path class="st2" d="M76.4,128.2c0-0.7,0.5-1.3,1.2-1.3c0.7,0,1.2,0.5,1.2,1.3c0,0.7-0.5,1.2-1.2,1.2
			C76.9,129.4,76.4,128.9,76.4,128.2z M76.4,135.3c0-0.7,0.5-1.3,1.2-1.3c0.7,0,1.2,0.5,1.2,1.3c0,0.7-0.5,1.2-1.2,1.2
			C76.9,136.5,76.4,136,76.4,135.3z"/>
		<path class="st2" d="M89.1,129.6c0,4.4-1.6,6.9-4.5,6.9c-2.5,0-4.3-2.4-4.3-6.7c0-4.4,1.9-6.8,4.5-6.8
			C87.5,123,89.1,125.5,89.1,129.6z M82,129.8c0,3.4,1,5.3,2.6,5.3c1.8,0,2.7-2.1,2.7-5.4c0-3.2-0.8-5.3-2.6-5.3
			C83.1,124.4,82,126.3,82,129.8z"/>
		<path class="st2" d="M99.4,129.6c0,4.4-1.6,6.9-4.5,6.9c-2.5,0-4.3-2.4-4.3-6.7c0-4.4,1.9-6.8,4.5-6.8
			C97.8,123,99.4,125.5,99.4,129.6z M92.3,129.8c0,3.4,1,5.3,2.6,5.3c1.8,0,2.7-2.1,2.7-5.4c0-3.2-0.8-5.3-2.6-5.3
			C93.4,124.4,92.3,126.3,92.3,129.8z"/>
	</g>
	<g id="Layer_7">
		<g>
			<path class="st17" d="M52.8,134v-6.7l-1.2,0.9l-0.9-1.2l3.6-2.7v9.7H52.8z"/>
			<path class="st17" d="M58.1,133.6c-0.5-0.3-0.9-0.7-1.2-1.2c-0.6-0.9-0.9-2-0.9-3.2c0-1.2,0.3-2.4,0.9-3.2
				c0.3-0.5,0.7-0.9,1.2-1.2c0.5-0.3,1.1-0.5,1.7-0.5s1.2,0.1,1.7,0.5c0.5,0.3,0.9,0.7,1.2,1.2c0.6,0.9,0.9,2,0.9,3.2
				s-0.3,2.4-0.9,3.2c-0.3,0.5-0.7,0.9-1.2,1.2c-0.5,0.3-1.1,0.5-1.7,0.5S58.6,133.9,58.1,133.6z M58.2,126.7
				c-0.4,0.6-0.6,1.5-0.6,2.4c0,0.9,0.2,1.8,0.6,2.4c0.4,0.6,1,0.9,1.6,0.9c0.7,0,1.2-0.3,1.6-0.9c0.4-0.6,0.6-1.5,0.6-2.4
				s-0.2-1.8-0.6-2.4c-0.4-0.6-0.9-0.9-1.6-0.9C59.1,125.8,58.6,126.1,58.2,126.7z"/>
			<path class="st17" d="M65.9,128.9c-0.5,0-0.9-0.4-0.9-0.9c0-0.5,0.4-0.9,0.9-0.9c0.5,0,0.9,0.4,0.9,0.9
				C66.8,128.5,66.4,128.9,65.9,128.9z M65.9,134c-0.5,0-0.9-0.4-0.9-0.9c0-0.5,0.4-0.9,0.9-0.9c0.5,0,0.9,0.4,0.9,0.9
				C66.8,133.6,66.4,134,65.9,134z"/>
			<path class="st17" d="M70.4,133.6c-0.5-0.3-0.9-0.7-1.2-1.2c-0.6-0.9-0.9-2-0.9-3.2c0-1.2,0.3-2.4,0.9-3.2
				c0.3-0.5,0.7-0.9,1.2-1.2c0.5-0.3,1.1-0.5,1.7-0.5c0.6,0,1.2,0.1,1.7,0.5c0.5,0.3,0.9,0.7,1.2,1.2c0.6,0.9,0.9,2,0.9,3.2
				s-0.3,2.4-0.9,3.2c-0.3,0.5-0.7,0.9-1.2,1.2c-0.5,0.3-1.1,0.5-1.7,0.5S70.9,133.9,70.4,133.6z M70.4,126.7
				c-0.4,0.6-0.6,1.5-0.6,2.4c0,0.9,0.2,1.8,0.6,2.4c0.4,0.6,1,0.9,1.6,0.9c0.7,0,1.2-0.3,1.6-0.9c0.4-0.6,0.6-1.5,0.6-2.4
				s-0.2-1.8-0.6-2.4c-0.4-0.6-0.9-0.9-1.6-0.9C71.4,125.8,70.8,126.1,70.4,126.7z"/>
			<path class="st17" d="M79.3,133.6c-0.5-0.3-0.9-0.7-1.2-1.2c-0.6-0.9-0.9-2-0.9-3.2c0-1.2,0.3-2.4,0.9-3.2
				c0.3-0.5,0.7-0.9,1.2-1.2c0.5-0.3,1.1-0.5,1.7-0.5s1.2,0.1,1.7,0.5c0.5,0.3,0.9,0.7,1.2,1.2c0.6,0.9,0.9,2,0.9,3.2
				s-0.3,2.4-0.9,3.2c-0.3,0.5-0.7,0.9-1.2,1.2c-0.5,0.3-1.1,0.5-1.7,0.5S79.8,133.9,79.3,133.6z M79.4,126.7
				c-0.4,0.6-0.6,1.5-0.6,2.4c0,0.9,0.2,1.8,0.6,2.4c0.4,0.6,1,0.9,1.6,0.9c0.7,0,1.2-0.3,1.6-0.9c0.4-0.6,0.6-1.5,0.6-2.4
				s-0.2-1.8-0.6-2.4c-0.4-0.6-0.9-0.9-1.6-0.9C80.3,125.8,79.8,126.1,79.4,126.7z"/>
			<path class="st17" d="M95.7,131.9h-3.5l-0.8,2.1h-1.7l4.2-10.2l4.2,10.2h-1.7L95.7,131.9z M95.1,130.6l-1.2-3l-1.2,3H95.1z"/>
			<path class="st17" d="M107.2,134v-5.2l-3,4.5l-3.1-4.5v5.2h-1.5v-10.2l4.6,6.8l4.6-6.8V134H107.2z"/>
		</g>
	</g>
	<g>
		<path class="st18" d="M144.4,121.2v8.2h-1.4v-3.6h-4.3v3.6h-1.3v-8.2h1.3v3.4h4.3v-3.4H144.4z"/>
		<path class="st18" d="M147.8,129.5c-0.3,0-0.6,0-0.8-0.1c-0.3-0.1-0.5-0.2-0.7-0.4c-0.2-0.2-0.3-0.4-0.4-0.6s-0.2-0.5-0.2-0.8
			c0-0.3,0.1-0.5,0.2-0.8c0.1-0.2,0.3-0.4,0.5-0.6c0.2-0.2,0.5-0.3,0.8-0.4c0.3-0.1,0.7-0.1,1.1-0.1c0.3,0,0.6,0,0.9,0.1
			c0.3,0.1,0.5,0.1,0.8,0.2v-0.4c0-0.4-0.1-0.8-0.4-1c-0.3-0.2-0.6-0.4-1.1-0.4c-0.3,0-0.7,0.1-1,0.2c-0.3,0.1-0.7,0.3-1,0.5
			l-0.4-0.8c0.8-0.5,1.7-0.8,2.5-0.8c0.9,0,1.5,0.2,2,0.6c0.5,0.4,0.7,1,0.7,1.8v2.2c0,0.3,0.1,0.4,0.3,0.4v1.1c-0.1,0-0.2,0-0.3,0
			s-0.2,0-0.3,0c-0.3,0-0.5-0.1-0.6-0.2c-0.1-0.1-0.2-0.3-0.3-0.5l0-0.4c-0.3,0.4-0.6,0.6-1,0.8
			C148.7,129.4,148.3,129.5,147.8,129.5z M148.2,128.6c0.3,0,0.6-0.1,0.9-0.2c0.3-0.1,0.5-0.3,0.7-0.5c0.2-0.1,0.3-0.3,0.3-0.4v-0.8
			c-0.2-0.1-0.5-0.2-0.7-0.2c-0.3,0-0.5-0.1-0.7-0.1c-0.5,0-0.9,0.1-1.2,0.3c-0.3,0.2-0.5,0.5-0.5,0.8c0,0.3,0.1,0.6,0.3,0.8
			C147.5,128.5,147.8,128.6,148.2,128.6z"/>
		<path class="st18" d="M152.5,126.4c0-0.4,0.1-0.8,0.2-1.2s0.4-0.7,0.7-1c0.3-0.3,0.6-0.5,1-0.7s0.9-0.2,1.3-0.2
			c0.7,0,1.2,0.1,1.7,0.4c0.5,0.3,0.8,0.6,1.1,1.1l-1.3,0.4c-0.2-0.3-0.4-0.5-0.6-0.6s-0.5-0.2-0.9-0.2c-0.3,0-0.5,0-0.7,0.2
			s-0.4,0.2-0.6,0.4c-0.2,0.2-0.3,0.4-0.4,0.6c-0.1,0.2-0.1,0.5-0.1,0.8c0,0.3,0.1,0.6,0.2,0.8c0.1,0.3,0.2,0.5,0.4,0.7
			c0.2,0.2,0.4,0.3,0.6,0.4c0.2,0.1,0.5,0.2,0.7,0.2c0.2,0,0.3,0,0.5-0.1c0.2,0,0.3-0.1,0.4-0.2c0.1-0.1,0.2-0.2,0.3-0.3
			c0.1-0.1,0.2-0.2,0.2-0.3l1.3,0.4c-0.2,0.5-0.6,0.8-1,1.1c-0.5,0.3-1.1,0.4-1.7,0.4c-0.5,0-0.9-0.1-1.3-0.3
			c-0.4-0.2-0.7-0.4-1-0.7c-0.3-0.3-0.5-0.6-0.7-1C152.6,127.2,152.5,126.8,152.5,126.4z"/>
		<path class="st18" d="M164,129.4l-2-2.8l-1,0.9v1.8h-1.3V121h1.3v5.4l2.9-3h1.4l-2.4,2.5l2.6,3.5H164z"/>
		<path class="st18" d="M167.8,129.5c-0.3,0-0.6,0-0.8-0.1c-0.3-0.1-0.5-0.2-0.7-0.4c-0.2-0.2-0.3-0.4-0.4-0.6s-0.2-0.5-0.2-0.8
			c0-0.3,0.1-0.5,0.2-0.8c0.1-0.2,0.3-0.4,0.5-0.6c0.2-0.2,0.5-0.3,0.8-0.4c0.3-0.1,0.7-0.1,1.1-0.1c0.3,0,0.6,0,0.9,0.1
			c0.3,0.1,0.5,0.1,0.8,0.2v-0.4c0-0.4-0.1-0.8-0.4-1c-0.3-0.2-0.6-0.4-1.1-0.4c-0.3,0-0.7,0.1-1,0.2c-0.3,0.1-0.7,0.3-1,0.5
			l-0.4-0.8c0.8-0.5,1.7-0.8,2.5-0.8c0.9,0,1.5,0.2,2,0.6c0.5,0.4,0.7,1,0.7,1.8v2.2c0,0.3,0.1,0.4,0.3,0.4v1.1c-0.1,0-0.2,0-0.3,0
			s-0.2,0-0.3,0c-0.3,0-0.5-0.1-0.6-0.2c-0.1-0.1-0.2-0.3-0.3-0.5l0-0.4c-0.3,0.4-0.6,0.6-1,0.8
			C168.8,129.4,168.3,129.5,167.8,129.5z M168.2,128.6c0.3,0,0.6-0.1,0.9-0.2c0.3-0.1,0.5-0.3,0.7-0.5c0.2-0.1,0.3-0.3,0.3-0.4v-0.8
			c-0.2-0.1-0.5-0.2-0.7-0.2c-0.3,0-0.5-0.1-0.7-0.1c-0.5,0-0.9,0.1-1.2,0.3c-0.3,0.2-0.5,0.5-0.5,0.8c0,0.3,0.1,0.6,0.3,0.8
			C167.5,128.5,167.8,128.6,168.2,128.6z"/>
		<path class="st18" d="M176.4,129.1c-0.2,0.1-0.4,0.2-0.7,0.3c-0.3,0.1-0.6,0.1-1,0.1c-0.2,0-0.4,0-0.6-0.1s-0.3-0.1-0.5-0.2
			c-0.1-0.1-0.3-0.2-0.3-0.4c-0.1-0.2-0.1-0.4-0.1-0.6v-3.8h-0.8v-1h0.8v-2h1.3v2h1.4v1h-1.4v3.4c0,0.2,0.1,0.4,0.2,0.5
			c0.1,0.1,0.3,0.1,0.5,0.1s0.4,0,0.5-0.1c0.2-0.1,0.3-0.1,0.4-0.2L176.4,129.1z"/>
		<path class="st18" d="M183,129.4h-1.3V126c0-0.6-0.1-1-0.3-1.2c-0.2-0.3-0.5-0.4-0.9-0.4c-0.2,0-0.4,0-0.6,0.1s-0.4,0.2-0.5,0.3
			c-0.2,0.1-0.3,0.3-0.4,0.5c-0.1,0.2-0.2,0.4-0.3,0.6v3.6h-1.3V121h1.3v3.6c0.2-0.4,0.6-0.7,1-1c0.4-0.2,0.9-0.3,1.4-0.3
			c0.4,0,0.7,0.1,1,0.2c0.3,0.1,0.5,0.3,0.6,0.5c0.2,0.2,0.3,0.5,0.3,0.8c0.1,0.3,0.1,0.6,0.1,0.9V129.4z"/>
		<path class="st18" d="M187.3,129.5c-0.5,0-0.9-0.1-1.3-0.3c-0.4-0.2-0.7-0.4-1-0.7c-0.3-0.3-0.5-0.6-0.6-1s-0.2-0.8-0.2-1.2
			c0-0.4,0.1-0.8,0.2-1.2s0.4-0.7,0.7-1c0.3-0.3,0.6-0.5,1-0.7c0.4-0.2,0.8-0.3,1.3-0.3s0.9,0.1,1.3,0.3c0.4,0.2,0.7,0.4,1,0.7
			c0.3,0.3,0.5,0.6,0.7,1s0.2,0.8,0.2,1.2c0,0.4-0.1,0.8-0.2,1.2s-0.4,0.7-0.7,1c-0.3,0.3-0.6,0.5-1,0.7
			C188.3,129.4,187.8,129.5,187.3,129.5z M185.5,126.4c0,0.3,0,0.6,0.1,0.8c0.1,0.2,0.2,0.5,0.4,0.6s0.4,0.3,0.6,0.4
			c0.2,0.1,0.5,0.2,0.7,0.2s0.5-0.1,0.7-0.2c0.2-0.1,0.4-0.2,0.6-0.4c0.2-0.2,0.3-0.4,0.4-0.6c0.1-0.2,0.1-0.5,0.1-0.8
			c0-0.3,0-0.6-0.1-0.8s-0.2-0.5-0.4-0.7c-0.2-0.2-0.4-0.3-0.6-0.4c-0.2-0.1-0.5-0.2-0.7-0.2c-0.3,0-0.5,0.1-0.7,0.2
			c-0.2,0.1-0.4,0.3-0.6,0.4c-0.2,0.2-0.3,0.4-0.4,0.7C185.5,125.8,185.5,126.1,185.5,126.4z"/>
		<path class="st18" d="M197.4,129.4h-1.3V126c0-0.6-0.1-1-0.3-1.2c-0.2-0.3-0.5-0.4-0.8-0.4c-0.2,0-0.4,0-0.6,0.1s-0.4,0.2-0.5,0.3
			c-0.2,0.1-0.3,0.3-0.5,0.5c-0.1,0.2-0.2,0.4-0.3,0.6v3.6h-1.3v-6.1h1.2v1.2c0.2-0.4,0.6-0.7,1-1s1-0.4,1.5-0.4
			c0.4,0,0.7,0.1,0.9,0.2c0.2,0.1,0.4,0.3,0.6,0.5c0.1,0.2,0.2,0.5,0.3,0.8c0.1,0.3,0.1,0.6,0.1,0.9V129.4z"/>
		<path class="st18" d="M133.9,142.4v-8.2h3.7c0.4,0,0.7,0.1,1.1,0.2c0.3,0.2,0.6,0.4,0.8,0.6c0.2,0.2,0.4,0.5,0.5,0.9
			c0.1,0.3,0.2,0.6,0.2,1c0,0.3,0,0.5-0.1,0.8s-0.2,0.5-0.3,0.7s-0.3,0.4-0.5,0.6c-0.2,0.2-0.4,0.3-0.7,0.4l2,3.1h-1.5l-1.9-2.9h-2
			v2.9H133.9z M135.3,138.4h2.4c0.2,0,0.4,0,0.5-0.1c0.2-0.1,0.3-0.2,0.4-0.3s0.2-0.3,0.3-0.5c0.1-0.2,0.1-0.4,0.1-0.6
			s0-0.4-0.1-0.6c-0.1-0.2-0.2-0.3-0.3-0.5s-0.3-0.2-0.4-0.3c-0.2-0.1-0.3-0.1-0.5-0.1h-2.3V138.4z"/>
		<path class="st18" d="M144.4,142.5c-0.5,0-0.9-0.1-1.3-0.2s-0.7-0.4-1-0.7c-0.3-0.3-0.5-0.6-0.7-1c-0.2-0.4-0.2-0.8-0.2-1.2
			c0-0.4,0.1-0.8,0.2-1.2c0.2-0.4,0.4-0.7,0.7-1c0.3-0.3,0.6-0.5,1-0.7s0.9-0.2,1.3-0.2c0.5,0,0.9,0.1,1.3,0.3
			c0.4,0.2,0.7,0.4,1,0.7s0.5,0.6,0.6,1c0.1,0.4,0.2,0.8,0.2,1.2c0,0.1,0,0.2,0,0.3c0,0.1,0,0.1,0,0.2h-5c0,0.3,0.1,0.5,0.2,0.7
			s0.2,0.4,0.4,0.6c0.2,0.2,0.4,0.3,0.6,0.4c0.2,0.1,0.5,0.1,0.7,0.1c0.2,0,0.4,0,0.5-0.1c0.2,0,0.3-0.1,0.5-0.2s0.3-0.2,0.4-0.3
			c0.1-0.1,0.2-0.2,0.3-0.4l1.1,0.3c-0.2,0.5-0.6,0.8-1.1,1.1S145,142.5,144.4,142.5z M146.3,138.9c0-0.3-0.1-0.5-0.2-0.7
			s-0.2-0.4-0.4-0.5s-0.4-0.3-0.6-0.4s-0.5-0.1-0.7-0.1c-0.2,0-0.5,0-0.7,0.1s-0.4,0.2-0.6,0.4s-0.3,0.3-0.4,0.5
			c-0.1,0.2-0.2,0.5-0.2,0.7H146.3z"/>
		<path class="st18" d="M151.2,142.5c-0.4,0-0.8-0.1-1.2-0.2c-0.4-0.2-0.7-0.4-0.9-0.7c-0.3-0.3-0.4-0.6-0.6-1
			c-0.1-0.4-0.2-0.8-0.2-1.2c0-0.4,0.1-0.8,0.2-1.2s0.3-0.7,0.6-1c0.3-0.3,0.6-0.5,0.9-0.7s0.8-0.2,1.2-0.2c0.5,0,0.9,0.1,1.3,0.3
			c0.4,0.2,0.7,0.5,0.9,0.9v-1.1h1.2v5.9c0,0.4-0.1,0.8-0.3,1.2s-0.4,0.6-0.7,0.9s-0.7,0.4-1.1,0.5c-0.4,0.1-0.9,0.2-1.3,0.2
			c-0.7,0-1.3-0.1-1.7-0.3c-0.5-0.2-0.8-0.5-1.2-1l0.7-0.7c0.2,0.3,0.6,0.6,0.9,0.7c0.4,0.2,0.8,0.3,1.2,0.3c0.3,0,0.5,0,0.8-0.1
			c0.2-0.1,0.5-0.2,0.6-0.3c0.2-0.1,0.3-0.3,0.4-0.6c0.1-0.2,0.2-0.5,0.2-0.8v-0.9c-0.2,0.4-0.5,0.7-0.9,0.9
			C152,142.4,151.6,142.5,151.2,142.5z M151.6,141.4c0.2,0,0.4,0,0.6-0.1c0.2-0.1,0.4-0.2,0.5-0.3c0.2-0.1,0.3-0.2,0.4-0.4
			s0.2-0.3,0.2-0.5v-1.6c-0.1-0.2-0.2-0.4-0.3-0.5s-0.3-0.3-0.4-0.4c-0.2-0.1-0.3-0.2-0.5-0.3s-0.4-0.1-0.6-0.1
			c-0.3,0-0.5,0.1-0.8,0.2c-0.2,0.1-0.4,0.3-0.6,0.5c-0.2,0.2-0.3,0.4-0.4,0.7s-0.1,0.5-0.1,0.8c0,0.3,0.1,0.5,0.2,0.8
			c0.1,0.2,0.2,0.5,0.4,0.6c0.2,0.2,0.4,0.3,0.6,0.4C151.1,141.4,151.3,141.4,151.6,141.4z"/>
		<path class="st18" d="M156.2,135.4V134h1.3v1.4H156.2z M156.2,142.4v-6.1h1.3v6.1H156.2z"/>
		<path class="st18" d="M161.4,142.5c-0.5,0-1-0.1-1.5-0.2c-0.5-0.2-0.9-0.4-1.3-0.7l0.5-0.8c0.4,0.3,0.8,0.5,1.1,0.6
			s0.7,0.2,1.1,0.2c0.4,0,0.7-0.1,0.9-0.2s0.3-0.4,0.3-0.6c0-0.3-0.1-0.4-0.4-0.6c-0.3-0.1-0.7-0.2-1.2-0.4c-0.4-0.1-0.7-0.2-1-0.3
			c-0.3-0.1-0.5-0.2-0.7-0.3c-0.2-0.1-0.3-0.3-0.4-0.4c-0.1-0.2-0.1-0.4-0.1-0.6c0-0.3,0.1-0.6,0.2-0.8s0.3-0.4,0.5-0.6
			c0.2-0.2,0.5-0.3,0.8-0.4s0.6-0.1,1-0.1c0.5,0,0.9,0.1,1.3,0.2s0.8,0.3,1.1,0.6l-0.6,0.8c-0.6-0.4-1.2-0.7-1.9-0.7
			c-0.3,0-0.6,0.1-0.8,0.2s-0.3,0.3-0.3,0.6c0,0.1,0,0.2,0.1,0.3c0,0.1,0.1,0.2,0.2,0.2s0.2,0.1,0.4,0.2c0.2,0,0.4,0.1,0.6,0.2
			c0.4,0.1,0.8,0.2,1.1,0.3c0.3,0.1,0.6,0.2,0.8,0.4c0.2,0.1,0.3,0.3,0.4,0.5s0.1,0.4,0.1,0.7c0,0.6-0.2,1-0.7,1.4
			C162.8,142.4,162.2,142.5,161.4,142.5z"/>
		<path class="st18" d="M168.6,142.1c-0.2,0.1-0.4,0.2-0.7,0.3c-0.3,0.1-0.6,0.1-1,0.1c-0.2,0-0.4,0-0.6-0.1s-0.3-0.1-0.5-0.2
			c-0.1-0.1-0.3-0.2-0.3-0.4c-0.1-0.2-0.1-0.4-0.1-0.6v-3.8h-0.8v-1h0.8v-2h1.3v2h1.4v1h-1.4v3.4c0,0.2,0.1,0.4,0.2,0.5
			c0.1,0.1,0.3,0.1,0.5,0.1s0.4,0,0.5-0.1c0.2-0.1,0.3-0.1,0.4-0.2L168.6,142.1z"/>
		<path class="st18" d="M173.1,137.5c-0.5,0-1,0.1-1.4,0.3c-0.4,0.2-0.7,0.5-0.8,0.9v3.7h-1.3v-6.1h1.2v1.4c0.2-0.4,0.5-0.8,0.8-1
			c0.3-0.3,0.7-0.4,1.1-0.4c0.1,0,0.1,0,0.2,0s0.1,0,0.1,0V137.5z"/>
		<path class="st18" d="M175.6,142.5c-0.3,0-0.6,0-0.8-0.1c-0.3-0.1-0.5-0.2-0.7-0.4c-0.2-0.2-0.3-0.4-0.4-0.6s-0.2-0.5-0.2-0.8
			c0-0.3,0.1-0.5,0.2-0.8c0.1-0.2,0.3-0.4,0.5-0.6c0.2-0.2,0.5-0.3,0.8-0.4c0.3-0.1,0.7-0.1,1.1-0.1c0.3,0,0.6,0,0.9,0.1
			c0.3,0.1,0.5,0.1,0.8,0.2v-0.4c0-0.4-0.1-0.8-0.4-1c-0.3-0.2-0.6-0.4-1.1-0.4c-0.3,0-0.7,0.1-1,0.2c-0.3,0.1-0.7,0.3-1,0.5
			l-0.4-0.8c0.8-0.5,1.7-0.8,2.5-0.8c0.9,0,1.5,0.2,2,0.6c0.5,0.4,0.7,1,0.7,1.8v2.2c0,0.3,0.1,0.4,0.3,0.4v1.1c-0.1,0-0.2,0-0.3,0
			s-0.2,0-0.3,0c-0.3,0-0.5-0.1-0.6-0.2c-0.1-0.1-0.2-0.3-0.3-0.5l0-0.4c-0.3,0.4-0.6,0.6-1,0.8
			C176.6,142.4,176.1,142.5,175.6,142.5z M176,141.6c0.3,0,0.6-0.1,0.9-0.2c0.3-0.1,0.5-0.3,0.7-0.5c0.2-0.1,0.3-0.3,0.3-0.4v-0.8
			c-0.2-0.1-0.5-0.2-0.7-0.2c-0.3,0-0.5-0.1-0.7-0.1c-0.5,0-0.9,0.1-1.2,0.3c-0.3,0.2-0.5,0.5-0.5,0.8c0,0.3,0.1,0.6,0.3,0.8
			C175.3,141.5,175.6,141.6,176,141.6z"/>
		<path class="st18" d="M184.2,142.1c-0.2,0.1-0.4,0.2-0.7,0.3c-0.3,0.1-0.6,0.1-1,0.1c-0.2,0-0.4,0-0.6-0.1s-0.3-0.1-0.5-0.2
			c-0.1-0.1-0.3-0.2-0.3-0.4c-0.1-0.2-0.1-0.4-0.1-0.6v-3.8h-0.8v-1h0.8v-2h1.3v2h1.4v1h-1.4v3.4c0,0.2,0.1,0.4,0.2,0.5
			c0.1,0.1,0.3,0.1,0.5,0.1s0.4,0,0.5-0.1c0.2-0.1,0.3-0.1,0.4-0.2L184.2,142.1z"/>
		<path class="st18" d="M185.1,135.4V134h1.3v1.4H185.1z M185.1,142.4v-6.1h1.3v6.1H185.1z"/>
		<path class="st18" d="M190.9,142.5c-0.5,0-0.9-0.1-1.3-0.3c-0.4-0.2-0.7-0.4-1-0.7c-0.3-0.3-0.5-0.6-0.6-1s-0.2-0.8-0.2-1.2
			c0-0.4,0.1-0.8,0.2-1.2s0.4-0.7,0.7-1c0.3-0.3,0.6-0.5,1-0.7c0.4-0.2,0.8-0.3,1.3-0.3s0.9,0.1,1.3,0.3c0.4,0.2,0.7,0.4,1,0.7
			c0.3,0.3,0.5,0.6,0.7,1s0.2,0.8,0.2,1.2c0,0.4-0.1,0.8-0.2,1.2s-0.4,0.7-0.7,1c-0.3,0.3-0.6,0.5-1,0.7
			C191.8,142.4,191.4,142.5,190.9,142.5z M189,139.4c0,0.3,0,0.6,0.1,0.8c0.1,0.2,0.2,0.5,0.4,0.6s0.4,0.3,0.6,0.4
			c0.2,0.1,0.5,0.2,0.7,0.2s0.5-0.1,0.7-0.2c0.2-0.1,0.4-0.2,0.6-0.4c0.2-0.2,0.3-0.4,0.4-0.6c0.1-0.2,0.1-0.5,0.1-0.8
			c0-0.3,0-0.6-0.1-0.8s-0.2-0.5-0.4-0.7c-0.2-0.2-0.4-0.3-0.6-0.4c-0.2-0.1-0.5-0.2-0.7-0.2c-0.3,0-0.5,0.1-0.7,0.2
			c-0.2,0.1-0.4,0.3-0.6,0.4c-0.2,0.2-0.3,0.4-0.4,0.7C189,138.8,189,139.1,189,139.4z"/>
		<path class="st18" d="M200.9,142.4h-1.3V139c0-0.6-0.1-1-0.3-1.2c-0.2-0.3-0.5-0.4-0.8-0.4c-0.2,0-0.4,0-0.6,0.1s-0.4,0.2-0.5,0.3
			c-0.2,0.1-0.3,0.3-0.5,0.5c-0.1,0.2-0.2,0.4-0.3,0.6v3.6h-1.3v-6.1h1.2v1.2c0.2-0.4,0.6-0.7,1-1s1-0.4,1.5-0.4
			c0.4,0,0.7,0.1,0.9,0.2c0.2,0.1,0.4,0.3,0.6,0.5c0.1,0.2,0.2,0.5,0.3,0.8c0.1,0.3,0.1,0.6,0.1,0.9V142.4z"/>
	</g>
</g>
<g id="Layer_5_copy" class="st0">
	<rect x="247.4" y="116" class="st19" width="72.4" height="27"/>
	<line class="st20" x1="318.5" y1="116" x2="421.1" y2="116"/>
	<g class="st2">
		<path d="M262.5,124.9L262.5,124.9l-2.3,1.2l-0.3-1.3l2.8-1.5h1.5v13h-1.7V124.9z"/>
		<path d="M277.7,129.6c0,4.4-1.6,6.9-4.5,6.9c-2.5,0-4.3-2.4-4.3-6.7c0-4.4,1.9-6.8,4.5-6.8C276.1,123,277.7,125.5,277.7,129.6z
			 M270.6,129.8c0,3.4,1,5.3,2.6,5.3c1.8,0,2.7-2.1,2.7-5.4c0-3.2-0.8-5.3-2.6-5.3C271.7,124.4,270.6,126.3,270.6,129.8z"/>
		<path d="M279.4,128.2c0-0.7,0.5-1.3,1.2-1.3c0.7,0,1.2,0.5,1.2,1.3c0,0.7-0.5,1.2-1.2,1.2C279.9,129.4,279.4,128.9,279.4,128.2z
			 M279.4,135.3c0-0.7,0.5-1.3,1.2-1.3c0.7,0,1.2,0.5,1.2,1.3c0,0.7-0.5,1.2-1.2,1.2C279.9,136.5,279.4,136,279.4,135.3z"/>
		<path d="M292.1,129.6c0,4.4-1.6,6.9-4.5,6.9c-2.5,0-4.3-2.4-4.3-6.7c0-4.4,1.9-6.8,4.5-6.8C290.5,123,292.1,125.5,292.1,129.6z
			 M285,129.8c0,3.4,1,5.3,2.6,5.3c1.8,0,2.7-2.1,2.7-5.4c0-3.2-0.8-5.3-2.6-5.3C286.1,124.4,285,126.3,285,129.8z"/>
		<path d="M302.4,129.6c0,4.4-1.6,6.9-4.5,6.9c-2.5,0-4.3-2.4-4.3-6.7c0-4.4,1.9-6.8,4.5-6.8C300.8,123,302.4,125.5,302.4,129.6z
			 M295.3,129.8c0,3.4,1,5.3,2.6,5.3c1.8,0,2.7-2.1,2.7-5.4c0-3.2-0.8-5.3-2.6-5.3C296.4,124.4,295.3,126.3,295.3,129.8z"/>
	</g>
</g>
<g id="Layer_5_copy_2" class="st0">
	<rect x="450.4" y="116" class="st19" width="72.4" height="27"/>
	<line class="st20" x1="521.5" y1="116" x2="624.1" y2="116"/>
	<g class="st2">
		<path d="M465.5,124.9L465.5,124.9l-2.3,1.2l-0.3-1.3l2.8-1.5h1.5v13h-1.7V124.9z"/>
		<path d="M480.7,129.6c0,4.4-1.6,6.9-4.5,6.9c-2.5,0-4.3-2.4-4.3-6.7c0-4.4,1.9-6.8,4.5-6.8C479.1,123,480.7,125.5,480.7,129.6z
			 M473.6,129.8c0,3.4,1,5.3,2.6,5.3c1.8,0,2.7-2.1,2.7-5.4c0-3.2-0.8-5.3-2.6-5.3C474.7,124.4,473.6,126.3,473.6,129.8z"/>
		<path d="M482.4,128.2c0-0.7,0.5-1.3,1.2-1.3c0.7,0,1.2,0.5,1.2,1.3c0,0.7-0.5,1.2-1.2,1.2C482.9,129.4,482.4,128.9,482.4,128.2z
			 M482.4,135.3c0-0.7,0.5-1.3,1.2-1.3c0.7,0,1.2,0.5,1.2,1.3c0,0.7-0.5,1.2-1.2,1.2C482.9,136.5,482.4,136,482.4,135.3z"/>
		<path d="M495.1,129.6c0,4.4-1.6,6.9-4.5,6.9c-2.5,0-4.3-2.4-4.3-6.7c0-4.4,1.9-6.8,4.5-6.8C493.5,123,495.1,125.5,495.1,129.6z
			 M488,129.8c0,3.4,1,5.3,2.6,5.3c1.8,0,2.7-2.1,2.7-5.4c0-3.2-0.8-5.3-2.6-5.3C489.1,124.4,488,126.3,488,129.8z"/>
		<path d="M505.4,129.6c0,4.4-1.6,6.9-4.5,6.9c-2.5,0-4.3-2.4-4.3-6.7c0-4.4,1.9-6.8,4.5-6.8C503.8,123,505.4,125.5,505.4,129.6z
			 M498.3,129.8c0,3.4,1,5.3,2.6,5.3c1.8,0,2.7-2.1,2.7-5.4c0-3.2-0.8-5.3-2.6-5.3C499.4,124.4,498.3,126.3,498.3,129.8z"/>
	</g>
</g>
</svg>
